{"asset":{"version":"2.0","generator":"Blockbench 5.0.6 glTF exporter"},"scenes":[{"nodes":[0,6,10,14],"name":"blockbench_export"}],"scene":0,"nodes":[{"translation":[0,0.21875,0.03125],"name":"body","mesh":0},{"name":"base","mesh":1},{"name":"base","mesh":2},{"name":"base","mesh":3},{"translation":[0,0,-0.15625],"name":"barrel","children":[3]},{"translation":[0,0.0625,-0.125],"name":"gun","children":[2,4]},{"translation":[0,0.296875,0.21875],"name":"turret","children":[1,5]},{"translation":[0.5625,0.09375,0],"name":"cover","mesh":4},{"translation":[-0.03125,0.0625,0],"name":"base","mesh":5},{"translation":[0.625,0,0],"name":"wheel_right","children":[8]},{"translation":[-0.3125,0.046875,0],"name":"track_right","children":[7,9]},{"translation":[-0.5625,0.09375,0],"name":"cover","mesh":6},{"translation":[0.03125,0.0625,0],"name":"base","mesh":7},{"translation":[-0.625,0,0],"name":"wheel_left","children":[12]},{"translation":[0.3125,0.046875,0],"name":"track_left","children":[11,13]}],"bufferViews":[{"buffer":0,"byteOffset":0,"byteLength":624,"target":34962,"byteStride":12},{"buffer":0,"byteOffset":624,"byteLength":624,"target":34962,"byteStride":12},{"buffer":0,"byteOffset":1248,"byteLength":416,"target":34962,"byteStride":8},{"buffer":0,"byteOffset":1664,"byteLength":144,"target":34963},{"buffer":0,"byteOffset":1808,"byteLength":1728,"target":34962,"byteStride":12},{"buffer":0,"byteOffset":3536,"byteLength":1728,"target":34962,"byteStride":12},{"buffer":0,"byteOffset":5264,"byteLength":1152,"target":34962,"byteStride":8},{"buffer":0,"byteOffset":6416,"byteLength":360,"target":34963},{"buffer":0,"byteOffset":6776,"byteLength":288,"target":34962,"byteStride":12},{"buffer":0,"byteOffset":7064,"byteLength":288,"target":34962,"byteStride":12},{"buffer":0,"byteOffset":7352,"byteLength":192,"target":34962,"byteStride":8},{"buffer":0,"byteOffset":7544,"byteLength":72,"target":34963},{"buffer":0,"byteOffset":7616,"byteLength":288,"target":34962,"byteStride":12},{"buffer":0,"byteOffset":7904,"byteLength":288,"target":34962,"byteStride":12},{"buffer":0,"byteOffset":8192,"byteLength":192,"target":34962,"byteStride":8},{"buffer":0,"byteOffset":8384,"byteLength":72,"target":34963},{"buffer":0,"byteOffset":8456,"byteLength":1056,"target":34962,"byteStride":12},{"buffer":0,"byteOffset":9512,"byteLength":1056,"target":34962,"byteStride":12},{"buffer":0,"byteOffset":10568,"byteLength":704,"target":34962,"byteStride":8},{"buffer":0,"byteOffset":11272,"byteLength":264,"target":34963},{"buffer":0,"byteOffset":11536,"byteLength":480,"target":34962,"byteStride":12},{"buffer":0,"byteOffset":12016,"byteLength":480,"target":34962,"byteStride":12},{"buffer":0,"byteOffset":12496,"byteLength":320,"target":34962,"byteStride":8},{"buffer":0,"byteOffset":12816,"byteLength":120,"target":34963},{"buffer":0,"byteOffset":12936,"byteLength":1056,"target":34962,"byteStride":12},{"buffer":0,"byteOffset":13992,"byteLength":1056,"target":34962,"byteStride":12},{"buffer":0,"byteOffset":15048,"byteLength":704,"target":34962,"byteStride":8},{"buffer":0,"byteOffset":15752,"byteLength":264,"target":34963},{"buffer":0,"byteOffset":16016,"byteLength":480,"target":34962,"byteStride":12},{"buffer":0,"byteOffset":16496,"byteLength":480,"target":34962,"byteStride":12},{"buffer":0,"byteOffset":16976,"byteLength":320,"target":34962,"byteStride":8},{"buffer":0,"byteOffset":17296,"byteLength":120,"target":34963}],"buffers":[{"byteLength":17416,"uri":"data:application/octet-stream;base64,"}],"accessors":[{"bufferView":0,"componentType":5126,"count":52,"max":[0.28125,0.078125,0.53125],"min":[-0.28125,-0.171875,-0.59375],"type":"VEC3"},{"bufferView":1,"componentType":5126,"count":52,"max":[0.986393928527832,1,0.9486833214759827],"min":[-0.986393928527832,-1,-0.650791347026825],"type":"VEC3"},{"bufferView":2,"componentType":5126,"count":52,"max":[1,1],"min":[0,0],"type":"VEC2"},{"bufferView":3,"componentType":5123,"count":72,"max":[51],"min":[0],"type":"SCALAR"},{"bufferView":4,"componentType":5126,"count":144,"max":[0.21875,0.109375,0.21875],"min":[-0.21875,0,-0.21875],"type":"VEC3"},{"bufferView":5,"componentType":5126,"count":144,"max":[0.8682431578636169,1,0.8682431578636169],"min":[-0.8682431578636169,-1,-0.7592566013336182],"type":"VEC3"},{"bufferView":6,"componentType":5126,"count":144,"max":[1,1],"min":[0,0],"type":"VEC2"},{"bufferView":7,"componentType":5123,"count":180,"max":[143],"min":[0],"type":"SCALAR"},{"bufferView":8,"componentType":5126,"count":24,"max":[0.0234375,0.0234375,0.03125],"min":[-0.0234375,-0.0234375,-0.15625],"type":"VEC3"},{"bufferView":9,"componentType":5126,"count":24,"max":[1,1,1],"min":[-1,-1,-1],"type":"VEC3"},{"bufferView":10,"componentType":5126,"count":24,"max":[1,1],"min":[0,0],"type":"VEC2"},{"bufferView":11,"componentType":5123,"count":36,"max":[23],"min":[0],"type":"SCALAR"},{"bufferView":12,"componentType":5126,"count":24,"max":[0.015625,0.015625,0],"min":[-0.015625,-0.015625,-0.3125],"type":"VEC3"},{"bufferView":13,"componentType":5126,"count":24,"max":[1,1,1],"min":[-1,-1,-1],"type":"VEC3"},{"bufferView":14,"componentType":5126,"count":24,"max":[1,1],"min":[0,0],"type":"VEC2"},{"bufferView":15,"componentType":5123,"count":36,"max":[23],"min":[0],"type":"SCALAR"},{"bufferView":16,"componentType":5126,"count":88,"max":[0.09375,0.09375,0.53125],"min":[0,-0.03125,-0.4375],"type":"VEC3"},{"bufferView":17,"componentType":5126,"count":88,"max":[1,1,0.8944271802902222],"min":[-1,-0.4472135901451111,-0.8944271802902222],"type":"VEC3"},{"bufferView":18,"componentType":5126,"count":88,"max":[1,1],"min":[0,0],"type":"VEC2"},{"bufferView":19,"componentType":5123,"count":132,"max":[87],"min":[0],"type":"SCALAR"},{"bufferView":20,"componentType":5126,"count":40,"max":[0.046875,0.0625,0.484375],"min":[-0.03125,-0.109375,-0.390625],"type":"VEC3"},{"bufferView":21,"componentType":5126,"count":40,"max":[1,1,1],"min":[-1,-1,-1],"type":"VEC3"},{"bufferView":22,"componentType":5126,"count":40,"max":[1,1],"min":[0,0],"type":"VEC2"},{"bufferView":23,"componentType":5123,"count":60,"max":[39],"min":[0],"type":"SCALAR"},{"bufferView":24,"componentType":5126,"count":88,"max":[0,0.09375,0.53125],"min":[-0.09375,-0.03125,-0.4375],"type":"VEC3"},{"bufferView":25,"componentType":5126,"count":88,"max":[1,1,0.8944271802902222],"min":[-1,-0.4472135901451111,-0.8944271802902222],"type":"VEC3"},{"bufferView":26,"componentType":5126,"count":88,"max":[1,1],"min":[0,0],"type":"VEC2"},{"bufferView":27,"componentType":5123,"count":132,"max":[87],"min":[0],"type":"SCALAR"},{"bufferView":28,"componentType":5126,"count":40,"max":[0.03125,0.0625,0.484375],"min":[-0.046875,-0.109375,-0.390625],"type":"VEC3"},{"bufferView":29,"componentType":5126,"count":40,"max":[1,1,1],"min":[-1,-1,-1],"type":"VEC3"},{"bufferView":30,"componentType":5126,"count":40,"max":[1,1],"min":[0,0],"type":"VEC2"},{"bufferView":31,"componentType":5123,"count":60,"max":[39],"min":[0],"type":"SCALAR"}],"materials":[{"pbrMetallicRoughness":{"metallicFactor":0,"roughnessFactor":1},"alphaMode":"MASK","alphaCutoff":0.05,"doubleSided":true},{"pbrMetallicRoughness":{"metallicFactor":0,"roughnessFactor":1},"alphaMode":"MASK","alphaCutoff":0.05,"doubleSided":true},{"pbrMetallicRoughness":{"metallicFactor":0,"roughnessFactor":1},"alphaMode":"MASK","alphaCutoff":0.05,"doubleSided":true},{"pbrMetallicRoughness":{"metallicFactor":0,"roughnessFactor":1},"alphaMode":"MASK","alphaCutoff":0.05,"doubleSided":true}],"meshes":[{"primitives":[{"mode":4,"attributes":{"POSITION":0,"NORMAL":1,"TEXCOORD_0":2},"indices":3,"material":0}]},{"primitives":[{"mode":4,"attributes":{"POSITION":4,"NORMAL":5,"TEXCOORD_0":6},"indices":7,"material":1}]},{"primitives":[{"mode":4,"attributes":{"POSITION":8,"NORMAL":9,"TEXCOORD_0":10},"indices":11,"material":2}]},{"primitives":[{"mode":4,"attributes":{"POSITION":12,"NORMAL":13,"TEXCOORD_0":14},"indices":15,"material":2}]},{"primitives":[{"mode":4,"attributes":{"POSITION":16,"NORMAL":17,"TEXCOORD_0":18},"indices":19,"material":2}]},{"primitives":[{"mode":4,"attributes":{"POSITION":20,"NORMAL":21,"TEXCOORD_0":22},"indices":23,"material":3}]},{"primitives":[{"mode":4,"attributes":{"POSITION":24,"NORMAL":25,"TEXCOORD_0":26},"indices":27,"material":2}]},{"primitives":[{"mode":4,"attributes":{"POSITION":28,"NORMAL":29,"TEXCOORD_0":30},"indices":31,"material":3}]}]}